# xmcd CD database file
#
# Track frame offsets:
#	150
#	15976
#	31784
#	46597
#
# Disc length: 843 seconds
#
# Revision: 2
# Processed by: cddbd v1.4b41PL1 Copyright (c) Steve Scherf et al.
# Submitted via: Feurio! 1.50.2ß - http://www.feurio.com
#
DISCID=1a034904
DTITLE=En Sonic - Fall In Love Again
DYEAR=1900
DGENRE=
TTITLE0=Fall In Love Again, radio version
TTITLE1=Fall In Love Again, instrumental
TTITLE2=Fall In Love Again, acapella mix
TTITLE3=Keep Your Promise
EXTD=
EXTT0=
EXTT1=
EXTT2=
EXTT3=
PLAYORDER=
